<?xml version="1.0" encoding="UTF-8"?>
<svg xmlns="http://www.w3.org/2000/svg" xmlns:xlink="http://www.w3.org/1999/xlink" width="100pt" height="100pt" viewBox="0 0 100 100" version="1.1">
<g id="girl">
<path style=" stroke:none;fill-rule:nonzero;fill:rgb(83.921569%,31.764706%,15.686275%);fill-opacity:1;" d="M 15.136719 59.148438 C 15.136719 59.148438 19.460938 68.09375 18.394531 75.671875 C 17.328125 83.25 11.324219 86.820312 8.761719 82.074219 C 8.761719 82.074219 -3.828125 100 50.378906 100 L 50.378906 50.964844 Z M 15.136719 59.148438 "/>
<path style=" stroke:none;fill-rule:nonzero;fill:rgb(83.921569%,31.764706%,15.686275%);fill-opacity:1;" d="M 85.953125 56.933594 C 85.953125 56.933594 80.539062 68.09375 81.605469 75.671875 C 82.671875 83.25 88.675781 86.820312 91.238281 82.074219 C 91.238281 82.074219 103.828125 100 49.621094 100 L 49.621094 50.964844 Z M 85.953125 56.933594 "/>
<path style=" stroke:none;fill-rule:nonzero;fill:rgb(99.215686%,80%,60.784314%);fill-opacity:1;" d="M 43.265625 75.671875 L 57.492188 75.671875 L 57.492188 91.605469 L 43.265625 91.605469 Z M 43.265625 75.671875 "/>
<path style=" stroke:none;fill-rule:nonzero;fill:rgb(98.823529%,73.72549%,52.156863%);fill-opacity:1;" d="M 43.265625 77.546875 C 43.265625 77.546875 49.246094 81.359375 57.492188 80.476562 L 57.492188 75.671875 L 43.265625 75.671875 Z M 43.265625 77.546875 "/>
<path style=" stroke:none;fill-rule:nonzero;fill:rgb(56.862745%,41.568627%,31.372549%);fill-opacity:1;" d="M 29.691406 50.964844 C 29.691406 46.589844 26.582031 43.042969 22.75 43.042969 C 18.914062 43.042969 15.804688 46.589844 15.804688 50.964844 C 15.804688 55.339844 18.914062 58.882812 22.75 58.882812 C 26.582031 58.882812 29.691406 55.339844 29.691406 50.964844 Z M 29.691406 50.964844 "/>
<path style=" stroke:none;fill-rule:nonzero;fill:rgb(56.862745%,41.568627%,31.372549%);fill-opacity:1;" d="M 84.949219 50.964844 C 84.949219 46.589844 81.839844 43.042969 78.003906 43.042969 C 74.171875 43.042969 71.0625 46.589844 71.0625 50.964844 C 71.0625 55.339844 74.171875 58.882812 78.003906 58.882812 C 81.839844 58.882812 84.949219 55.339844 84.949219 50.964844 Z M 84.949219 50.964844 "/>
<path style=" stroke:none;fill-rule:nonzero;fill:rgb(99.215686%,80%,60.784314%);fill-opacity:1;" d="M 77.976562 35.835938 C 77.976562 24.171875 69.441406 15.632812 50.378906 15.632812 C 31.3125 15.632812 22.777344 24.171875 22.777344 35.835938 C 22.777344 47.503906 20.785156 78.234375 50.378906 78.234375 C 79.96875 78.234375 77.976562 47.503906 77.976562 35.835938 Z M 77.976562 35.835938 "/>
<path style=" stroke:none;fill-rule:nonzero;fill:rgb(23.137255%,14.509804%,9.803922%);fill-opacity:1;" d="M 39.921875 49.066406 C 39.921875 47.261719 38.585938 45.796875 36.933594 45.796875 C 35.285156 45.796875 33.945312 47.261719 33.945312 49.066406 C 33.945312 50.875 35.285156 52.339844 36.933594 52.339844 C 38.585938 52.339844 39.921875 50.875 39.921875 49.066406 Z M 39.921875 49.066406 "/>
<path style=" stroke:none;fill-rule:nonzero;fill:rgb(100%,100%,100%);fill-opacity:1;" d="M 36.523438 47.621094 C 36.523438 48.117188 36.125 48.515625 35.632812 48.515625 C 35.136719 48.515625 34.738281 48.117188 34.738281 47.621094 C 34.738281 47.128906 35.136719 46.730469 35.632812 46.730469 C 36.125 46.730469 36.523438 47.128906 36.523438 47.621094 Z M 36.523438 47.621094 "/>
<path style=" stroke:none;fill-rule:nonzero;fill:rgb(85.098039%,43.137255%,15.294118%);fill-opacity:1;" d="M 32.152344 42.011719 C 33.566406 42.554688 35.835938 40.175781 41.027344 42.242188 C 41.976562 42.621094 42.539062 39.015625 36.972656 39.015625 C 32.152344 39.015625 31.300781 41.683594 32.152344 42.011719 Z M 32.152344 42.011719 "/>
<path style=" stroke:none;fill-rule:nonzero;fill:rgb(23.137255%,14.509804%,9.803922%);fill-opacity:1;" d="M 67.175781 49.066406 C 67.175781 47.261719 65.839844 45.796875 64.191406 45.796875 C 62.539062 45.796875 61.203125 47.261719 61.203125 49.066406 C 61.203125 50.875 62.539062 52.339844 64.191406 52.339844 C 65.839844 52.339844 67.175781 50.875 67.175781 49.066406 Z M 67.175781 49.066406 "/>
<path style=" stroke:none;fill-rule:nonzero;fill:rgb(100%,100%,100%);fill-opacity:1;" d="M 63.78125 47.621094 C 63.78125 48.117188 63.378906 48.515625 62.886719 48.515625 C 62.394531 48.515625 61.992188 48.117188 61.992188 47.621094 C 61.992188 47.128906 62.394531 46.730469 62.886719 46.730469 C 63.378906 46.730469 63.78125 47.128906 63.78125 47.621094 Z M 63.78125 47.621094 "/>
<path style=" stroke:none;fill-rule:nonzero;fill:rgb(85.098039%,43.137255%,15.294118%);fill-opacity:1;" d="M 68.601562 42.011719 C 67.1875 42.554688 64.917969 40.175781 59.726562 42.242188 C 58.777344 42.621094 58.214844 39.015625 63.78125 39.015625 C 68.601562 39.015625 69.453125 41.683594 68.601562 42.011719 Z M 68.601562 42.011719 "/>
<path style=" stroke:none;fill-rule:nonzero;fill:rgb(98.823529%,73.72549%,52.156863%);fill-opacity:1;" d="M 50.378906 60.578125 C 47.425781 60.578125 45.648438 58.371094 45.648438 59.4375 C 45.648438 60.503906 46.5 62.53125 50.378906 62.53125 C 54.253906 62.53125 55.109375 60.503906 55.109375 59.4375 C 55.109375 58.371094 53.328125 60.578125 50.378906 60.578125 Z M 50.378906 60.578125 "/>
<path style=" stroke:none;fill-rule:nonzero;fill:rgb(98.823529%,73.72549%,52.156863%);fill-opacity:1;" d="M 50.378906 70.386719 C 49.355469 70.386719 48.742188 69.625 48.742188 69.996094 C 48.742188 70.363281 49.035156 71.066406 50.378906 71.066406 C 51.71875 71.066406 52.011719 70.363281 52.011719 69.996094 C 52.011719 69.625 51.398438 70.386719 50.378906 70.386719 Z M 50.378906 70.386719 "/>
<path style=" stroke:none;fill-rule:nonzero;fill:rgb(96.862745%,58.039216%,36.862745%);fill-opacity:1;" d="M 50.378906 67.667969 C 45.699219 67.667969 42.878906 65.765625 42.878906 66.246094 C 42.878906 66.730469 44.230469 68.628906 50.378906 68.628906 C 56.523438 68.628906 57.875 66.730469 57.875 66.246094 C 57.875 65.765625 55.054688 67.667969 50.378906 67.667969 Z M 50.378906 67.667969 "/>
<path style=" stroke:none;fill-rule:nonzero;fill:rgb(97.647059%,66.666667%,55.294118%);fill-opacity:1;" d="M 37.148438 59.523438 C 37.148438 61.761719 35.332031 63.578125 33.09375 63.578125 C 30.851562 63.578125 29.035156 61.761719 29.035156 59.523438 C 29.035156 57.285156 30.851562 55.46875 33.09375 55.46875 C 35.332031 55.46875 37.148438 57.285156 37.148438 59.523438 Z M 37.148438 59.523438 "/>
<path style=" stroke:none;fill-rule:nonzero;fill:rgb(97.647059%,66.666667%,55.294118%);fill-opacity:1;" d="M 72.214844 59.523438 C 72.214844 61.761719 70.398438 63.578125 68.160156 63.578125 C 65.921875 63.578125 64.105469 61.761719 64.105469 59.523438 C 64.105469 57.285156 65.921875 55.46875 68.160156 55.46875 C 70.398438 55.46875 72.214844 57.285156 72.214844 59.523438 Z M 72.214844 59.523438 "/>
<path style=" stroke:none;fill-rule:nonzero;fill:rgb(96.470588%,63.529412%,69.411765%);fill-opacity:1;" d="M 50.378906 82.074219 L 50.378906 100 L 19.21875 100 C 19.21875 92.746094 34.015625 82.074219 50.378906 82.074219 Z M 50.378906 82.074219 "/>
<path style=" stroke:none;fill-rule:nonzero;fill:rgb(96.470588%,63.529412%,69.411765%);fill-opacity:1;" d="M 50.378906 82.074219 L 50.378906 100 L 81.535156 100 C 81.535156 92.746094 66.738281 82.074219 50.378906 82.074219 Z M 50.378906 82.074219 "/>
<path style=" stroke:none;fill-rule:nonzero;fill:rgb(99.215686%,80%,60.784314%);fill-opacity:1;" d="M 43.265625 82.695312 L 50.378906 95.414062 C 50.800781 95.414062 57.492188 82.695312 57.492188 82.695312 C 57.492188 82.695312 50.109375 80.007812 43.265625 82.695312 Z M 43.265625 82.695312 "/>
<path style=" stroke:none;fill-rule:nonzero;fill:rgb(95.294118%,50.588235%,56.862745%);fill-opacity:1;" d="M 43.265625 80.609375 L 47.394531 84.929688 L 50.378906 95.414062 L 46.109375 89.011719 L 41.308594 91.605469 L 37.144531 84.125 C 37.148438 84.121094 40.738281 80.851562 43.265625 80.609375 Z M 43.265625 80.609375 "/>
<path style=" stroke:none;fill-rule:nonzero;fill:rgb(95.294118%,50.588235%,56.862745%);fill-opacity:1;" d="M 57.492188 80.609375 L 53.359375 84.929688 L 50.378906 95.414062 L 54.644531 89.011719 L 59.445312 91.605469 L 63.609375 84.125 C 63.609375 84.121094 60.015625 80.851562 57.492188 80.609375 Z M 57.492188 80.609375 "/>
<path style=" stroke:none;fill-rule:nonzero;fill:rgb(95.294118%,50.588235%,56.862745%);fill-opacity:1;" d="M 50.378906 100 L 50.378906 95.414062 L 48.03125 91.890625 Z M 50.378906 100 "/>
<path style=" stroke:none;fill-rule:nonzero;fill:rgb(95.294118%,50.588235%,56.862745%);fill-opacity:1;" d="M 50.378906 100 L 50.378906 95.414062 L 52.535156 91.890625 Z M 50.378906 100 "/>
<path style=" stroke:none;fill-rule:nonzero;fill:rgb(85.098039%,43.137255%,15.294118%);fill-opacity:1;" d="M 71.0625 8.234375 C 71.0625 8.234375 53.972656 -4.675781 33.09375 1.832031 C 13.238281 8.023438 12.816406 34.273438 13.457031 49.066406 C 14.097656 63.863281 19.21875 65.640625 24.339844 63.578125 C 31.113281 60.851562 24.339844 52.339844 24.339844 52.339844 C 27.542969 49.066406 26.261719 43.042969 26.261719 43.042969 C 31.277344 42.859375 33.089844 34.699219 33.089844 34.699219 C 42.847656 38.457031 45.644531 31.070312 45.644531 31.070312 C 54.785156 35.976562 61.992188 27.226562 61.992188 27.226562 C 61.992188 27.226562 66.496094 36.589844 72.214844 35.550781 C 72.214844 35.550781 70.710938 44.550781 74.277344 45.796875 C 74.277344 45.796875 70.457031 57.320312 75.460938 60.839844 C 80.464844 64.359375 88.574219 60.859375 88.363281 43.042969 C 88.148438 25.226562 84.949219 6.527344 71.0625 8.234375 Z M 71.0625 8.234375 "/>
</g>
</svg>
